<svg fill="#3FC0DD" xmlns="http://www.w3.org/2000/svg" xmlns:xlink="http://www.w3.org/1999/xlink" version="1.1" x="0px" y="0px" viewBox="0 0 41.7 100" xml:space="preserve"><path d="M39.7,34.6c-4.2-8.7-13.6-13.1-22.6-11.5l2.4-4.5c0.6-1,0.2-2.3-0.8-2.8c-1-0.6-2.3-0.2-2.8,0.8L11,25.7  c0,0-1.1,1.8,0.6,2.6l9.1,4.9c0.3,0.2,0.7,0.3,1,0.3c0.7,0,1.5-0.4,1.8-1.1c0.6-1,0.2-2.3-0.8-2.8L18,27c7.1-1.2,14.5,2.4,17.8,9.2  c4,8.3,0.5,18.3-7.8,22.2c-4,1.9-8.5,2.2-12.7,0.7s-7.6-4.5-9.5-8.5s-2.2-8.5-0.7-12.7c0.4-1.1-0.2-2.3-1.3-2.7  c-1-0.2-2.2,0.4-2.6,1.5C-0.6,42-0.3,47.6,2.1,52.6S8.7,61.4,14,63.3c2.3,0.8,4.6,1.2,6.9,1.2c3.1,0,6.2-0.7,9-2.1  C40.3,57.4,44.7,44.9,39.7,34.6z"/></svg>